<svg width="16" height="16" viewBox="0 0 16 16" fill="none" xmlns="http://www.w3.org/2000/svg">
<path d="M8.00005 1.33337C9.66671 1.33337 11.1667 1.93337 12.3334 2.93337C11.6009 3.5587 11.013 4.33559 10.6101 5.21037C10.2072 6.08515 9.99909 7.03696 10 8.00004C10 10.0267 10.9067 11.8467 12.3334 13.0667C11.1667 14.0667 9.66671 14.6667 8.00005 14.6667C6.33338 14.6667 4.83338 14.0667 3.66671 13.0667C4.39917 12.4414 4.98714 11.6645 5.39 10.7897C5.79286 9.91493 6.001 8.96312 6.00005 8.00004C6.00005 5.97337 5.09338 4.15337 3.66671 2.93337C4.83338 1.93337 6.33338 1.33337 8.00005 1.33337ZM14.6667 8.00004C14.6667 9.54671 14.14 10.9667 13.2534 12.1C12.6522 11.5993 12.1686 10.9724 11.8368 10.2639C11.5049 9.55532 11.3331 8.78244 11.3334 8.00004C11.3334 6.35337 12.08 4.88004 13.2534 3.90004C14.171 5.0695 14.6688 6.51354 14.6667 8.00004ZM1.33338 8.00004C1.33338 6.45337 1.86005 5.03337 2.74671 3.90004C3.34789 4.40078 3.83153 5.02765 4.16334 5.7362C4.49515 6.44476 4.66701 7.21764 4.66671 8.00004C4.66671 9.64671 3.92005 11.12 2.74671 12.1C1.82908 10.9306 1.3313 9.48654 1.33338 8.00004Z" fill="#FF6600"/>
</svg>
