<?xml version="1.0" encoding="UTF-8" standalone="no"?><!DOCTYPE svg PUBLIC "-//W3C//DTD SVG 1.1//EN" "http://www.w3.org/Graphics/SVG/1.1/DTD/svg11.dtd"><svg width="100%" height="100%" viewBox="0 0 1788 1546" version="1.1" xmlns="http://www.w3.org/2000/svg" xmlns:xlink="http://www.w3.org/1999/xlink" xml:space="preserve" xmlns:serif="http://www.serif.com/" style="fill-rule:evenodd;clip-rule:evenodd;stroke-linejoin:round;stroke-miterlimit:2;"><g><g><path d="M125.036,258.72l28.862,-163.89l285.519,-0l-128.845,730.805l-183.474,0l99.983,-566.915l-102.045,-0Z" style="fill:#002b5b;fill-rule:nonzero;"/><path d="M314.38,1382.01l-28.861,163.89l-285.519,0l128.844,-730.806l183.475,0l-99.983,566.916l102.044,-0Z" style="fill:#f60;fill-rule:nonzero;"/><path d="M680.684,988.954l13.987,-18.077c-0,-0 18.581,-48.531 56.602,-91.123c81.843,-91.68 214.226,-194.641 204.359,-226.171c-9.868,-31.531 -263.562,36.991 -263.562,36.991l-241.274,-38.327c0,-0 41.937,113.408 52.639,170.296c10.677,56.758 20.461,118.543 14.439,155.435c-5.318,32.585 162.81,10.976 162.81,10.976Z" style="fill:none;"/><path d="M446.632,450.44c19.928,-114.07 58.581,-204.605 115.96,-271.604c57.379,-66.999 136.919,-100.499 238.62,-100.499c81.773,0 141.729,22.162 179.867,66.484c38.138,44.323 57.207,105.996 57.207,185.021c-0,32.297 -4.123,72.496 -12.369,120.598c-19.928,114.071 -58.753,204.605 -116.476,271.604c-57.722,66.999 -137.434,100.499 -239.135,100.499c-81.773,0 -141.385,-22.161 -178.836,-66.484c-37.451,-44.322 -56.176,-105.996 -56.176,-185.02c-0,-36.42 3.779,-76.62 11.338,-120.599Zm405.087,0c7.559,-42.604 11.338,-75.932 11.338,-99.983c0,-34.359 -6.871,-60.815 -20.615,-79.368c-13.743,-18.554 -37.107,-27.831 -70.091,-27.831c-47.415,0 -81.945,18.21 -103.591,54.63c-21.646,36.42 -37.966,87.271 -48.961,152.552c-7.559,42.605 -11.338,75.933 -11.338,99.984c-0,34.358 6.871,60.814 20.615,79.368c13.743,18.553 37.107,27.83 70.091,27.83c47.415,0 81.945,-18.21 103.591,-54.63c21.646,-36.42 37.966,-87.271 48.961,-152.552Z" style="fill:#002b5b;fill-rule:nonzero;"/><path d="M1218.67,190.69c-27.487,-0 -49.304,-7.387 -65.453,-22.161c-16.148,-14.775 -24.223,-33.5 -24.223,-56.177c0,-30.922 12.026,-57.378 36.077,-79.368c24.051,-21.989 53.255,-32.984 87.614,-32.984c27.487,-0 49.133,7.387 64.938,22.161c15.805,14.774 23.707,33.843 23.707,57.207c-0,30.236 -12.025,56.348 -36.076,78.338c-24.051,21.989 -52.913,32.984 -86.584,32.984Zm76.276,59.784l-101.014,575.161l-176.259,0l101.014,-575.161l176.259,-0Z" style="fill:#002b5b;fill-rule:nonzero;"/><path d="M1509.34,833.881c-45.353,0 -86.068,-7.215 -122.144,-21.646c-36.077,-14.43 -64.423,-34.53 -85.038,-60.299c-20.615,-25.769 -30.922,-55.489 -30.922,-89.16c-0,-4.81 0.687,-13.4 2.061,-25.769l170.075,-0c-1.375,21.302 4.982,38.31 19.069,51.022c14.087,12.713 34.187,19.069 60.299,19.069c21.989,0 40.199,-4.123 54.63,-12.369c14.431,-8.246 21.646,-19.928 21.646,-35.045c-0,-14.431 -7.731,-25.941 -23.192,-34.531c-15.461,-8.589 -41.059,-19.069 -76.791,-31.438c-37.108,-12.369 -68.202,-24.566 -93.284,-36.592c-25.081,-12.025 -46.556,-29.376 -64.422,-52.053c-17.866,-22.676 -26.8,-51.194 -26.8,-85.552c0,-33.672 9.964,-64.079 29.892,-91.222c19.928,-27.144 47.93,-48.274 84.007,-63.392c36.076,-15.118 77.822,-22.676 125.237,-22.676c47.414,-0 88.645,7.73 123.69,23.192c35.046,15.461 62.189,36.935 81.43,64.422c19.241,27.487 28.861,58.409 28.861,92.768l-1.031,15.461l-159.767,0c1.375,-20.615 -4.81,-37.107 -18.553,-49.476c-13.744,-12.369 -33.328,-18.554 -58.753,-18.554c-19.928,0 -36.249,4.123 -48.961,12.369c-12.713,8.246 -19.069,19.585 -19.069,34.015c-0,15.118 8.418,27.659 25.253,37.623c16.836,9.964 43.12,21.13 78.853,33.499c37.107,12.369 67.858,24.567 92.253,36.592c24.394,12.026 45.353,28.861 62.876,50.507c17.523,21.646 26.284,48.618 26.284,80.915c0,37.107 -11.166,69.06 -33.499,95.86c-22.334,26.8 -52.913,47.243 -91.738,61.33c-38.825,14.087 -82.976,21.13 -132.452,21.13Z" style="fill:#002b5b;fill-rule:nonzero;"/></g><g><path d="M718.135,556.095c-27.487,0 -49.305,-7.387 -65.453,-22.161c-16.149,-14.774 -24.223,-33.5 -24.223,-56.176c-0,-30.923 12.025,-57.379 36.076,-79.369c24.051,-21.989 53.256,-32.984 87.615,-32.984c27.486,0 49.132,7.387 64.937,22.161c15.805,14.775 23.708,33.844 23.708,57.207c-0,30.236 -12.026,56.348 -36.077,78.338c-24.051,21.989 -52.912,32.984 -86.583,32.984Zm-18.354,414.645l-101.014,575.162l-176.259,0l101.014,-575.162l176.259,0Z" style="fill:#f60;fill-rule:nonzero;"/><path d="M1183.07,887.249c-33.671,0 -58.238,5.691 -73.699,17.072c-15.461,11.381 -25.941,31.803 -31.438,61.266l-1.031,5.153l94.83,0l-25.769,146.368l-94.83,-0l-75.245,428.794l-177.29,0l75.245,-428.794l-63.906,-0l25.769,-146.368l63.906,0l3.093,-16.492c13.056,-70.778 43.12,-124.549 90.191,-161.313c47.071,-36.764 109.775,-55.145 188.113,-55.145c12.369,-0 21.646,0.343 27.83,1.03l-25.769,148.429Z" style="fill:#f60;fill-rule:nonzero;"/><path d="M1507.7,954.248c74.214,0 133.139,20.1 176.774,60.299c43.636,40.2 65.453,95.002 65.453,164.406c0,22.677 -1.718,42.948 -5.153,60.815c-2.749,15.805 -6.872,32.64 -12.37,50.507l-398.902,-0c-0.687,4.123 -1.031,10.651 -1.031,19.584c0,30.235 8.246,53.256 24.738,69.061c16.493,15.805 38.482,23.707 65.969,23.707c43.979,-0 77.65,-18.554 101.014,-55.661l187.597,0c-24.738,58.41 -64.937,106.168 -120.598,143.275c-55.661,37.107 -118.193,55.661 -187.598,55.661c-74.214,0 -133.482,-20.615 -177.805,-61.845c-44.322,-41.231 -66.484,-97.235 -66.484,-168.013c0,-21.303 2.062,-43.292 6.185,-65.969c10.307,-59.784 31.61,-112.009 63.907,-156.675c32.297,-44.666 72.496,-79.024 120.598,-103.075c48.102,-24.051 100.671,-36.077 157.706,-36.077Zm63.907,246.351c1.374,-9.621 2.061,-16.149 2.061,-19.584c0,-27.487 -8.59,-48.618 -25.769,-63.392c-17.179,-14.774 -39.856,-22.161 -68.03,-22.161c-30.235,-0 -56.863,9.105 -79.883,27.315c-23.02,18.21 -39.684,44.151 -49.992,77.822l221.613,-0Z" style="fill:#f60;fill-rule:nonzero;"/></g></g></svg>