<svg width="61" height="57" viewBox="0 0 61 57" fill="none" xmlns="http://www.w3.org/2000/svg">
<path d="M23.5564 25.599C29.5809 25.599 34.4648 20.7152 34.4648 14.6906C34.4648 8.66607 29.5809 3.78221 23.5564 3.78221C17.5318 3.78221 12.6479 8.66607 12.6479 14.6906C12.6479 20.7152 17.5318 25.599 23.5564 25.599Z" fill="#002B5B"/>
<path d="M23.5566 28.6609C25.319 28.661 27.5391 28.9451 29.8584 29.5115C29.6039 31.0458 29.5824 32.5791 29.8066 34.0555C29.7769 36.4366 29.1749 38.1959 28.6016 39.3426C28.3084 39.929 28.0203 40.3589 27.8174 40.6307C27.7163 40.7659 27.6362 40.8612 27.5879 40.9168C27.5638 40.9445 27.5471 40.9629 27.54 40.9705L21.1494 47.3611H3.29785V41.1277C3.298 32.8374 16.7954 28.6609 23.5566 28.6609ZM31.5625 29.9744C32.8226 30.3524 34.0862 30.8117 35.2979 31.3523C35.1453 33.4216 35.712 35.33 37.0625 36.6805L37.208 36.8201C38.7515 38.2509 40.9491 38.7278 43.2734 38.3387C43.6227 39.2099 43.8144 40.1395 43.8145 41.1277V42.1736C42.4485 42.387 41.0969 42.3906 39.8125 42.1795C34.3354 42.1989 31.5665 44.9267 31.5439 44.949L29.1318 47.3611H23.6318L28.7939 42.199C28.8162 42.1765 31.544 39.4075 31.5635 33.9305C31.3547 32.6605 31.3562 31.3247 31.5625 29.9744ZM39.6875 43.9363C41.0302 44.1403 42.4197 44.1401 43.8145 43.9471V47.3611H31.6133L32.7773 46.1971C32.7865 46.1886 32.8027 46.1746 32.8252 46.1551C32.8808 46.1067 32.9766 46.026 33.1123 45.9246C33.384 45.7217 33.814 45.4346 34.4004 45.1414C35.5471 44.5681 37.3063 43.966 39.6875 43.9363ZM32.7725 46.202L32.7764 46.199L32.7773 46.1971C32.7753 46.1989 32.7738 46.2007 32.7725 46.202ZM37.0312 32.2039C39.1019 33.3228 40.915 34.7059 42.1445 36.3523L42.3828 36.6854C40.6586 36.8406 39.2415 36.3701 38.2998 35.4344C37.5266 34.6588 37.0716 33.5499 37.0312 32.2039Z" fill="#002B5B"/>
<path d="M28.7938 42.1991C28.7938 42.1991 31.5436 39.4298 31.5631 33.9302C30.861 29.6593 32.5382 24.6472 36.3801 20.8248C42.0942 15.1107 50.4216 14.1746 55.0241 18.7186C59.5681 23.3211 58.632 31.6485 52.9179 37.3626C49.0955 41.2045 44.0834 42.8817 39.8125 42.1796C34.3129 42.1991 31.5436 44.9489 31.5436 44.9489L23.2747 53.2178L20.5249 50.468L28.7938 42.1991ZM52.2353 21.5074C49.1735 18.4651 43.3228 19.3817 39.1299 23.5941C34.9564 27.7676 34.0203 33.6377 37.0627 36.68C40.1245 39.7224 45.9751 38.7863 50.1486 34.6128C54.361 30.4199 55.2776 24.5692 52.2353 21.5074Z" fill="#002B5B"/>
</svg>
