<svg width="29" height="30" viewBox="0 0 29 30" fill="none" xmlns="http://www.w3.org/2000/svg">
<path d="M6.54805 21.1139C6.54805 21.1139 8.66305 18.9839 8.67805 14.7539C8.13805 11.4689 9.42805 7.61386 12.383 4.67386C16.778 0.278864 23.1831 -0.441136 26.723 3.05386C30.2181 6.59386 29.4981 12.9989 25.1031 17.3939C22.163 20.3489 18.308 21.6389 15.023 21.0989C10.793 21.1139 8.66305 23.2289 8.66305 23.2289L2.30305 29.5889L0.18805 27.4739L6.54805 21.1139ZM24.578 5.19886C22.223 2.85886 17.7231 3.56386 14.4981 6.80386C11.2881 10.0139 10.568 14.5289 12.908 16.8689C15.263 19.2089 19.7631 18.4889 22.973 15.2789C26.2131 12.0539 26.918 7.55386 24.578 5.19886Z" fill="white"/>
</svg>
